<svg id="visual" viewBox="0 0 960 540" width="960" height="540" xmlns="http://www.w3.org/2000/svg" xmlns:xlink="http://www.w3.org/1999/xlink" version="1.1"><path d="M0 163L87 163L87 120L175 120L175 163L262 163L262 179L349 179L349 168L436 168L436 109L524 109L524 179L611 179L611 217L698 217L698 104L785 104L785 190L873 190L873 195L960 195L960 71L960 0L960 0L873 0L873 0L785 0L785 0L698 0L698 0L611 0L611 0L524 0L524 0L436 0L436 0L349 0L349 0L262 0L262 0L175 0L175 0L87 0L87 0L0 0Z" fill="#ece6e6"></path><path d="M0 249L87 249L87 228L175 228L175 293L262 293L262 255L349 255L349 282L436 282L436 174L524 174L524 336L611 336L611 282L698 282L698 222L785 222L785 341L873 341L873 325L960 325L960 168L960 69L960 193L873 193L873 188L785 188L785 102L698 102L698 215L611 215L611 177L524 177L524 107L436 107L436 166L349 166L349 177L262 177L262 161L175 161L175 118L87 118L87 161L0 161Z" fill="#e3b9bc"></path><path d="M0 282L87 282L87 276L175 276L175 341L262 341L262 325L349 325L349 325L436 325L436 260L524 260L524 379L611 379L611 357L698 357L698 303L785 303L785 406L873 406L873 357L960 357L960 249L960 166L960 323L873 323L873 339L785 339L785 220L698 220L698 280L611 280L611 334L524 334L524 172L436 172L436 280L349 280L349 253L262 253L262 291L175 291L175 226L87 226L87 247L0 247Z" fill="#d68b98"></path><path d="M0 449L87 449L87 476L175 476L175 433L262 433L262 438L349 438L349 492L436 492L436 460L524 460L524 487L611 487L611 492L698 492L698 503L785 503L785 503L873 503L873 460L960 460L960 438L960 247L960 355L873 355L873 404L785 404L785 301L698 301L698 355L611 355L611 377L524 377L524 258L436 258L436 323L349 323L349 323L262 323L262 339L175 339L175 274L87 274L87 280L0 280Z" fill="#c55c79"></path><path d="M0 541L87 541L87 541L175 541L175 541L262 541L262 541L349 541L349 541L436 541L436 541L524 541L524 541L611 541L611 541L698 541L698 541L785 541L785 541L873 541L873 541L960 541L960 541L960 436L960 458L873 458L873 501L785 501L785 501L698 501L698 490L611 490L611 485L524 485L524 458L436 458L436 490L349 490L349 436L262 436L262 431L175 431L175 474L87 474L87 447L0 447Z" fill="#b0235f"></path></svg>